# xmcd
#
# Track frame offsets:
#	150
#	13727
#	24047
#	39667
#	53730
#	65797
#	78227
#	97265
#	111192
#	118457
#	153475
#	164605
#	178367
#	188977
#	215472
#	225477
#	237635
#	247162
#	257975
#	267830
#	278430
#	301782
#	305970
#	316987
#	331440
#
# Disc length: 4734 seconds
#
# Revision: 1
# Processed by: cddbd v1.4PL0 Copyright (c) Steve Scherf et al.
# Submitted via: audiograbber 1.81.02
#
DISCID=75127c19
DTITLE=Various Artist - Blues Classics (Vol. 4)
DYEAR=1996
DGENRE=Blues
TTITLE0=Muddy Waters - I Got Mojo Working
TTITLE1=Memphis Slim - The Comeback
TTITLE2=Billie Holiday - Solitude
TTITLE3=Ray Charles - Kiss Me Baby
TTITLE4=John Lee Hooker - Whiskey and Women
TTITLE5=Lightnin' Hopkins - Evil Hearted Woman
TTITLE6=Howlin' Wolf - Say It For Me
TTITLE7=Mississippi John Hurt - Spike Driver's Blues
TTITLE8=Leadbelly - Poor Howard Green Cord
TTITLE9=Pinetop Perkins - Sunnyland Slim
TTITLE10=Jimmy Reed - You're Something Else
TTITLE11=Lightning Slim - Good Mornin Hertaches
TTITLE12=Billie Holiday - T'aint Nobody's Bussiness If I Do
TTITLE13=Muddy Waters - Garbage Man
TTITLE14=Big Joe Williams - 44 Blues
TTITLE15=Memphis Slim - Sassy Mae
TTITLE16=Canned Heat - Big Road Blues
TTITLE17=Ray Charles - I Wonder Who's Kissing Her Now
TTITLE18=John Lee Hooker - Dusty Road
TTITLE19=Ligntnin' Hopkins - My Little Kewpie Doll
TTITLE20=Holin' Wolf - I Didn't Mean To Hurt Your Feelings
TTITLE21=Mississippi John Hurt - Chicken Blues
TTITLE22=Jimmy Reed - Little Rain
TTITLE23=Lightning Slim - Things I Used To Do
TTITLE24=Muddy Waters - Screamin' and Cryin'
EXTD=
EXTT0=
EXTT1=
EXTT2=
EXTT3=
EXTT4=
EXTT5=
EXTT6=
EXTT7=
EXTT8=
EXTT9=
EXTT10=
EXTT11=
EXTT12=
EXTT13=
EXTT14=
EXTT15=
EXTT16=
EXTT17=
EXTT18=
EXTT19=
EXTT20=
EXTT21=
EXTT22=
EXTT23=
EXTT24=
PLAYORDER=
